<svg width="400" height="400" viewBox="0 0 400 400" fill="none" xmlns="http://www.w3.org/2000/svg">
  <rect width="400" height="400" fill="#f8fafc"/>
  <!-- Hoodie shape -->
  <path d="M100 120 L100 100 C100 90 110 80 120 80 L140 80 L140 70 C140 60 150 50 160 50 L240 50 C250 50 260 60 260 70 L260 80 L280 80 C290 80 300 90 300 100 L300 120 L320 120 L320 140 L300 140 L300 360 C300 370 290 380 280 380 L120 380 C110 380 100 370 100 360 L100 140 L80 140 L80 120 Z" fill="#111827"/>
  <!-- Hood -->
  <path d="M140 50 C140 40 150 30 160 30 L240 30 C250 30 260 40 260 50 L260 80 L140 80 Z" fill="#1f2937"/>
  <!-- Pocket -->
  <rect x="160" y="220" width="80" height="60" rx="8" fill="#374151"/>
  <!-- Drawstrings -->
  <circle cx="180" cy="90" r="3" fill="#9ca3af"/>
  <circle cx="220" cy="90" r="3" fill="#9ca3af"/>
  <text x="200" y="340" text-anchor="middle" fill="#6b7280" font-family="Arial, sans-serif" font-size="14">Hoodie Premium</text>
</svg>